<svg width="54" height="47" viewBox="0 0 54 47" fill="none" xmlns="http://www.w3.org/2000/svg">
<path d="M15.9858 46.1962C17.0164 46.1962 17.8519 45.3608 17.8519 44.3302C17.8519 43.2996 17.0164 42.4641 15.9858 42.4641C14.9552 42.4641 14.1198 43.2996 14.1198 44.3302C14.1198 45.3608 14.9552 46.1962 15.9858 46.1962Z" stroke="white" stroke-linecap="round" stroke-linejoin="round"/>
<path d="M36.5127 46.1962C37.5433 46.1962 38.3787 45.3608 38.3787 44.3302C38.3787 43.2996 37.5433 42.4641 36.5127 42.4641C35.4821 42.4641 34.6466 43.2996 34.6466 44.3302C34.6466 45.3608 35.4821 46.1962 36.5127 46.1962Z" stroke="white" stroke-linecap="round" stroke-linejoin="round"/>
<path d="M1.05713 7.00854H8.52139L13.5225 31.9952C13.6931 32.8543 14.1605 33.626 14.8428 34.1753C15.5251 34.7245 16.3788 35.0163 17.2546 34.9995H35.3927C36.2685 35.0163 37.1222 34.7245 37.8046 34.1753C38.4869 33.626 38.9542 32.8543 39.1249 31.9952L42.1106 16.3389H10.3875" stroke="white" stroke-linecap="round" stroke-linejoin="round"/>
<ellipse cx="44.205" cy="10.3713" rx="9.79509" ry="10.3713" fill="#FF4B32"/>
<path d="M46.5935 11.9863V13.3047H40.7576V12.1797L43.5173 9.2207C43.7947 8.91211 44.0134 8.64062 44.1736 8.40625C44.3337 8.16797 44.449 7.95508 44.5193 7.76758C44.5935 7.57617 44.6306 7.39453 44.6306 7.22266C44.6306 6.96484 44.5876 6.74414 44.5017 6.56055C44.4158 6.37305 44.2888 6.22852 44.1208 6.12695C43.9568 6.02539 43.7537 5.97461 43.5115 5.97461C43.2537 5.97461 43.031 6.03711 42.8435 6.16211C42.6599 6.28711 42.5193 6.46094 42.4216 6.68359C42.3279 6.90625 42.281 7.1582 42.281 7.43945H40.5876C40.5876 6.93164 40.7087 6.4668 40.9509 6.04492C41.1931 5.61914 41.5349 5.28125 41.9763 5.03125C42.4177 4.77734 42.9412 4.65039 43.5466 4.65039C44.1443 4.65039 44.6482 4.74805 45.0583 4.94336C45.4724 5.13477 45.7849 5.41211 45.9958 5.77539C46.2107 6.13477 46.3181 6.56445 46.3181 7.06445C46.3181 7.3457 46.2732 7.62109 46.1833 7.89062C46.0935 8.15625 45.9646 8.42188 45.7966 8.6875C45.6326 8.94922 45.4333 9.21484 45.199 9.48438C44.9646 9.75391 44.7048 10.0332 44.4197 10.3223L42.9373 11.9863H46.5935Z" fill="white"/>
</svg>
