<svg width="138" height="58" viewBox="0 0 138 58" fill="none" xmlns="http://www.w3.org/2000/svg">
<g filter="url(#filter0_d_1_617)">
<path d="M78.24 39.704C77.952 39.896 77.56 40.112 77.064 40.352C76.568 40.592 75.984 40.792 75.312 40.952C74.656 41.112 73.936 41.192 73.152 41.192C71.808 41.176 70.592 40.936 69.504 40.472C68.432 40.008 67.52 39.376 66.768 38.576C66.016 37.776 65.432 36.856 65.016 35.816C64.616 34.76 64.416 33.64 64.416 32.456C64.416 31.16 64.624 29.968 65.04 28.88C65.472 27.776 66.072 26.824 66.84 26.024C67.608 25.208 68.512 24.576 69.552 24.128C70.608 23.68 71.76 23.456 73.008 23.456C74.048 23.456 74.992 23.6 75.84 23.888C76.688 24.16 77.416 24.488 78.024 24.872L77.088 27.032C76.608 26.712 76.024 26.408 75.336 26.12C74.664 25.832 73.912 25.688 73.08 25.688C72.232 25.688 71.432 25.856 70.68 26.192C69.928 26.528 69.264 27 68.688 27.608C68.112 28.216 67.656 28.928 67.32 29.744C67 30.544 66.84 31.408 66.84 32.336C66.84 33.28 66.984 34.16 67.272 34.976C67.576 35.776 68 36.472 68.544 37.064C69.104 37.656 69.776 38.12 70.56 38.456C71.344 38.792 72.224 38.96 73.2 38.96C74.08 38.96 74.864 38.824 75.552 38.552C76.24 38.28 76.808 37.976 77.256 37.64L78.24 39.704ZM80.7441 35.936C80.7441 34.944 80.9761 34.048 81.4401 33.248C81.9201 32.448 82.5761 31.816 83.4081 31.352C84.2401 30.888 85.1841 30.656 86.2401 30.656C87.3281 30.656 88.2801 30.888 89.0961 31.352C89.9121 31.816 90.5441 32.448 90.9921 33.248C91.4401 34.048 91.6641 34.944 91.6641 35.936C91.6641 36.928 91.4401 37.832 90.9921 38.648C90.5441 39.448 89.9041 40.08 89.0721 40.544C88.2561 41.008 87.3041 41.24 86.2161 41.24C85.1601 41.24 84.2161 41.024 83.3841 40.592C82.5681 40.144 81.9201 39.528 81.4401 38.744C80.9761 37.944 80.7441 37.008 80.7441 35.936ZM82.9761 35.96C82.9761 36.6 83.1201 37.184 83.4081 37.712C83.6961 38.224 84.0801 38.632 84.5601 38.936C85.0561 39.24 85.6001 39.392 86.1921 39.392C86.8161 39.392 87.3681 39.24 87.8481 38.936C88.3441 38.632 88.7281 38.224 89.0001 37.712C89.2721 37.184 89.4081 36.6 89.4081 35.96C89.4081 35.32 89.2721 34.744 89.0001 34.232C88.7281 33.704 88.3441 33.288 87.8481 32.984C87.3681 32.664 86.8161 32.504 86.1921 32.504C85.5841 32.504 85.0321 32.664 84.5361 32.984C84.0561 33.304 83.6721 33.728 83.3841 34.256C83.1121 34.768 82.9761 35.336 82.9761 35.96ZM95.5022 41V33.056H93.7982V31.064H95.5022V26.864C95.5022 25.424 95.8222 24.32 96.4622 23.552C97.1182 22.784 98.0782 22.4 99.3422 22.4C99.6782 22.4 100.046 22.448 100.446 22.544C100.862 22.64 101.222 22.8 101.526 23.024L100.59 24.632C100.446 24.488 100.286 24.392 100.11 24.344C99.9342 24.28 99.7582 24.248 99.5822 24.248C98.9902 24.248 98.5342 24.448 98.2142 24.848C97.8942 25.248 97.7342 25.928 97.7342 26.888V31.064H100.878V33.056H97.7342V41H95.5022ZM102.822 41V33.056H101.118V31.064H102.822V26.864C102.822 25.424 103.142 24.32 103.782 23.552C104.438 22.784 105.398 22.4 106.662 22.4C106.998 22.4 107.366 22.448 107.766 22.544C108.182 22.64 108.542 22.8 108.846 23.024L107.91 24.632C107.766 24.488 107.606 24.392 107.43 24.344C107.254 24.28 107.078 24.248 106.902 24.248C106.31 24.248 105.854 24.448 105.534 24.848C105.214 25.248 105.054 25.928 105.054 26.888V31.064H108.198V33.056H105.054V41H102.822ZM115.607 41.24C114.471 41.24 113.495 41.016 112.679 40.568C111.863 40.104 111.231 39.48 110.783 38.696C110.351 37.896 110.135 36.984 110.135 35.96C110.135 34.984 110.383 34.096 110.879 33.296C111.375 32.496 112.039 31.856 112.871 31.376C113.703 30.896 114.631 30.656 115.655 30.656C116.967 30.656 118.055 31.04 118.919 31.808C119.783 32.576 120.367 33.632 120.671 34.976L112.487 37.856L111.959 36.536L118.679 34.088L118.199 34.4C118.007 33.872 117.687 33.416 117.239 33.032C116.791 32.632 116.207 32.432 115.487 32.432C114.879 32.432 114.335 32.584 113.855 32.888C113.375 33.176 112.999 33.576 112.727 34.088C112.455 34.6 112.319 35.184 112.319 35.84C112.319 36.528 112.463 37.136 112.751 37.664C113.039 38.176 113.431 38.584 113.927 38.888C114.439 39.176 115.015 39.32 115.655 39.32C116.087 39.32 116.503 39.24 116.903 39.08C117.319 38.92 117.703 38.712 118.055 38.456L119.087 40.112C118.591 40.448 118.031 40.72 117.407 40.928C116.799 41.136 116.199 41.24 115.607 41.24ZM128.075 41.24C126.939 41.24 125.963 41.016 125.147 40.568C124.331 40.104 123.699 39.48 123.251 38.696C122.819 37.896 122.603 36.984 122.603 35.96C122.603 34.984 122.851 34.096 123.347 33.296C123.843 32.496 124.507 31.856 125.339 31.376C126.171 30.896 127.099 30.656 128.123 30.656C129.435 30.656 130.523 31.04 131.387 31.808C132.251 32.576 132.835 33.632 133.139 34.976L124.955 37.856L124.427 36.536L131.147 34.088L130.667 34.4C130.475 33.872 130.155 33.416 129.707 33.032C129.259 32.632 128.675 32.432 127.955 32.432C127.347 32.432 126.803 32.584 126.323 32.888C125.843 33.176 125.467 33.576 125.195 34.088C124.923 34.6 124.787 35.184 124.787 35.84C124.787 36.528 124.931 37.136 125.219 37.664C125.507 38.176 125.899 38.584 126.395 38.888C126.907 39.176 127.483 39.32 128.123 39.32C128.555 39.32 128.971 39.24 129.371 39.08C129.787 38.92 130.171 38.712 130.523 38.456L131.555 40.112C131.059 40.448 130.499 40.72 129.875 40.928C129.267 41.136 128.667 41.24 128.075 41.24Z" fill="#FF4B32"/>
<g clip-path="url(#clip0_1_617)">
<path d="M50.8497 41.8508H43.7774C43.3728 41.8508 43.045 42.1787 43.045 42.5832C43.045 42.9877 43.3728 43.3156 43.7774 43.3156H50.1173V43.7288L39.4526 45.7541H18.0748L7.41016 43.7288V43.3156H10.3223C10.3234 43.3156 10.3246 43.3158 10.3257 43.3158C10.3266 43.3158 10.3275 43.3156 10.3284 43.3156H12.9673C12.9682 43.3156 12.969 43.3158 12.9698 43.3158C12.9712 43.3158 12.9727 43.3156 12.974 43.3156H21.755C21.7555 43.3156 21.756 43.3157 21.7566 43.3157C21.7571 43.3157 21.7575 43.3156 21.7579 43.3156H24.3746C24.3754 43.3156 24.3762 43.3158 24.377 43.3158C24.3778 43.3158 24.3787 43.3156 24.3794 43.3156H33.148C33.1489 43.3156 33.1497 43.3158 33.1504 43.3158C33.1512 43.3158 33.152 43.3156 33.1527 43.3156H41.0576C41.4622 43.3156 41.79 42.9877 41.79 42.5832C41.79 42.1787 41.4622 41.8508 41.0576 41.8508H36.3334C37.2081 41.2949 38.0244 40.6439 38.7583 39.9105C39.8175 38.8508 40.6872 37.6521 41.3518 36.3562C42.278 36.7335 43.2587 36.925 44.2754 36.925C48.5649 36.925 52.0547 33.4347 52.0547 29.1447C52.0547 24.8551 48.5649 21.3654 44.2754 21.3654C43.8105 21.3654 43.35 21.4075 42.8974 21.4886V21.0696C42.8974 20.1321 42.1347 19.3694 41.1973 19.3694H37.7334C37.3288 19.3694 37.0009 19.6973 37.0009 20.1018C37.0009 20.5063 37.3288 20.8342 37.7334 20.8342H41.1973C41.327 20.8342 41.4326 20.9398 41.4326 21.0696V22.3147H16.0937V21.0696C16.0937 20.9398 16.1992 20.8342 16.329 20.8342H35.0127C35.4172 20.8342 35.7451 20.5063 35.7451 20.1018C35.7451 19.6973 35.4172 19.3694 35.0127 19.3694H16.329C15.3915 19.3694 14.6288 20.1321 14.6288 21.0696V29.9153C14.6288 31.02 14.758 32.1152 15.0098 33.179C13.8177 32.8235 12.3972 33.1028 11.1011 33.9896C10.7672 34.218 10.6817 34.6738 10.9101 35.0077C11.1386 35.3415 11.5944 35.4269 11.9282 35.1986C12.7777 34.6175 13.6691 34.3893 14.4062 34.537L11.7384 38.5284C11.5136 38.8647 11.604 39.3196 11.9402 39.5443C12.0652 39.6279 12.2068 39.6679 12.3466 39.6679C12.583 39.6679 12.8151 39.5537 12.9562 39.3425L15.6247 35.3497C15.9015 35.7605 16.0531 36.2981 16.0603 36.9247C16.0603 36.925 16.0603 36.9252 16.0603 36.9255C16.0603 36.9268 16.0604 36.9282 16.0604 36.9296C16.0702 37.8971 15.7321 38.9437 15.1086 39.8765C14.7531 40.4085 14.3328 40.8646 13.8569 41.2342C13.5269 41.4926 13.1802 41.6993 12.825 41.8508H10.5112C10.4848 41.8349 10.4584 41.819 10.4321 41.8012C9.2127 40.9868 9.13555 38.8804 10.2565 37.0059C10.4641 36.6588 10.351 36.209 10.0038 36.0013C9.65684 35.7939 9.20694 35.9068 8.99932 36.2541C8.28477 37.4489 7.93575 38.7802 8.01661 40.0027C8.0625 40.6964 8.24405 41.3215 8.54288 41.8507H6.67774C6.27315 41.8507 5.94531 42.1786 5.94531 42.5831V44.335C5.94531 44.6869 6.19551 44.9889 6.54111 45.0546L17.3116 47.1V49.2676C17.3116 49.6721 17.6395 50 18.0441 50H39.4824C39.887 50 40.2148 49.6721 40.2148 49.2676V47.1002L50.9863 45.0546C51.3319 44.9889 51.5821 44.6868 51.5821 44.335V42.5831C51.5821 42.1787 51.2542 41.8508 50.8497 41.8508ZM42.8973 29.9151V26.4499H42.8974C43.3218 26.232 43.7912 26.1164 44.2754 26.1164C45.9452 26.1164 47.3037 27.4749 47.3037 29.1447C47.3037 30.8145 45.9452 32.173 44.2754 32.173C43.7432 32.173 43.231 32.0348 42.7761 31.7743C42.8559 31.1628 42.8973 30.5422 42.8973 29.9151ZM42.4979 33.272C43.0548 33.5125 43.6563 33.638 44.2754 33.638C46.7529 33.638 48.7685 31.6223 48.7685 29.1448C48.7685 26.6672 46.7529 24.6516 44.2754 24.6516C43.8027 24.6516 43.339 24.7255 42.8974 24.8678V23.0546C42.8974 23.0521 42.8978 23.0497 42.8978 23.0471C42.8978 23.0446 42.8974 23.0421 42.8974 23.0396V22.9821C43.347 22.8817 43.8086 22.8302 44.2755 22.8302C47.7572 22.8302 50.5899 25.6629 50.5899 29.1447C50.5899 32.627 47.7572 35.4601 44.2755 35.4601C43.4679 35.4601 42.6895 35.3096 41.9529 35.017C42.1723 34.4491 42.3539 33.8663 42.4979 33.272ZM16.0937 23.7795H41.4326V26.034C41.4326 26.0348 41.4326 26.0357 41.4326 26.0365V29.9152C41.4326 33.2994 40.1149 36.4813 37.7225 38.8747C36.397 40.1993 34.7736 41.2259 33.022 41.8508H24.5063C24.2701 41.7667 24.035 41.6762 23.8029 41.5773C24.3403 40.7324 24.5451 39.7924 24.3682 38.8965C24.368 38.8953 24.3679 38.8942 24.3677 38.893C24.3674 38.8917 24.3669 38.8903 24.3667 38.8889C24.1332 37.7234 23.3097 36.7644 22.0472 36.1884C20.8646 35.6489 19.4192 35.5092 17.9771 35.7956C17.8459 35.8216 17.7159 35.8514 17.587 35.8842C16.6094 34.0566 16.0937 32.0054 16.0937 29.9153V23.7795ZM16.3267 40.6904C17.0047 39.676 17.4139 38.5384 17.5053 37.436C17.751 37.3532 18.0037 37.2838 18.2626 37.2322C20.1262 36.8623 21.9231 37.423 22.6396 38.4898L17.9325 39.4255C17.5358 39.5044 17.2781 39.8898 17.3569 40.2866C17.4262 40.6351 17.7322 40.8763 18.0745 40.8763C18.1218 40.8763 18.1699 40.8718 18.2181 40.8621L22.9281 39.9258C22.8341 40.4076 22.5656 40.8906 22.1354 41.3344C22.1342 41.3355 22.1331 41.3368 22.1321 41.338C21.9527 41.522 21.7498 41.6934 21.5289 41.8506H15.3706C15.7217 41.5044 16.0419 41.1166 16.3267 40.6904ZM38.75 48.5353H18.7764V47.2189H38.75V48.5353Z" fill="#FF4B32"/>
<path d="M30.6696 14.6436C30.6563 14.652 30.6455 14.6587 30.6377 14.6637C30.645 14.659 30.6558 14.6522 30.6696 14.6436Z" fill="#FF4B32"/>
<path d="M30.6382 14.6636C30.6181 14.6762 30.6206 14.6746 30.6382 14.6636V14.6636Z" fill="#FF4B32"/>
<path d="M32.2554 7.99494C33.2418 7.05744 33.8098 5.75832 33.8098 4.36378C33.8098 2.62794 32.9311 1.03877 31.4592 0.1126C31.1169 -0.10283 30.6645 0.000100211 30.4493 0.342484C30.2338 0.684867 30.3368 1.13702 30.6792 1.35245C31.7223 2.0088 32.3451 3.13448 32.3451 4.36368C32.3451 5.59288 31.7223 6.71857 30.6792 7.37492C30.2314 7.65578 30.2314 8.33293 30.6792 8.61477C31.7223 9.27111 32.3451 10.3968 32.3451 11.626C32.3452 12.8553 31.7224 13.9811 30.6793 14.6374C30.6754 14.6398 30.673 14.6413 30.6697 14.6435C30.6728 14.6415 30.6758 14.6397 30.6793 14.6375C30.3369 14.853 30.2339 15.3051 30.4494 15.6475C30.5885 15.8688 30.8265 15.99 31.0699 15.99C31.2032 15.99 31.3381 15.9536 31.4592 15.8774C32.9311 14.9513 33.8098 13.362 33.8098 11.6263C33.8098 10.2316 33.2417 8.93244 32.2554 7.99494ZM31.0613 14.397C31.0786 14.3862 31.0807 14.3848 31.0613 14.397V14.397ZM30.9659 14.4572C30.9819 14.447 30.9967 14.4377 31.0101 14.4293C30.9973 14.4373 30.983 14.4464 30.9659 14.4572Z" fill="#FF4B32"/>
<path d="M36.6138 7.37508C36.2715 7.15965 35.8191 7.26248 35.6038 7.60496C35.3884 7.94724 35.4913 8.39949 35.8337 8.61492C36.8768 9.27127 37.4995 10.3971 37.4995 11.6263C37.4996 12.8553 36.8769 13.981 35.8338 14.6374C35.4914 14.8528 35.3885 15.305 35.6039 15.6474C35.7431 15.8686 35.9811 15.9898 36.2244 15.9898C36.3577 15.9898 36.4927 15.9534 36.6138 15.8772C38.0856 14.9512 38.9643 13.3619 38.9643 11.6262C38.9643 9.89041 38.0856 8.30115 36.6138 7.37508Z" fill="#FF4B32"/>
<path d="M25.8828 7.37505C25.5405 7.15962 25.0881 7.26255 24.8729 7.60494C24.6574 7.94732 24.7604 8.39947 25.1027 8.6149C26.1459 9.27125 26.7687 10.3969 26.7687 11.6261C26.7688 12.8553 26.146 13.9811 25.1028 14.6375C24.7605 14.8529 24.6575 15.305 24.873 15.6474C25.0121 15.8687 25.2501 15.9899 25.4935 15.9899C25.6268 15.9899 25.7617 15.9535 25.8828 15.8773C27.3547 14.9512 28.2334 13.362 28.2334 11.6262C28.2334 9.89039 27.3547 8.30123 25.8828 7.37505Z" fill="#FF4B32"/>
</g>
</g>
<defs>
<filter id="filter0_d_1_617" x="0" y="0" width="137.139" height="58" filterUnits="userSpaceOnUse" color-interpolation-filters="sRGB">
<feFlood flood-opacity="0" result="BackgroundImageFix"/>
<feColorMatrix in="SourceAlpha" type="matrix" values="0 0 0 0 0 0 0 0 0 0 0 0 0 0 0 0 0 0 127 0" result="hardAlpha"/>
<feOffset dy="4"/>
<feGaussianBlur stdDeviation="2"/>
<feComposite in2="hardAlpha" operator="out"/>
<feColorMatrix type="matrix" values="0 0 0 0 0 0 0 0 0 0 0 0 0 0 0 0 0 0 0.25 0"/>
<feBlend mode="normal" in2="BackgroundImageFix" result="effect1_dropShadow_1_617"/>
<feBlend mode="normal" in="SourceGraphic" in2="effect1_dropShadow_1_617" result="shape"/>
</filter>
<clipPath id="clip0_1_617">
<rect width="50" height="50" fill="white" transform="translate(4)"/>
</clipPath>
</defs>
</svg>
